<?xml version="1.0" encoding="utf-8"?>
<!-- Generator: Adobe Illustrator 16.0.0, SVG Export Plug-In . SVG Version: 6.00 Build 0)  -->
<!DOCTYPE svg PUBLIC "-//W3C//DTD SVG 1.1//EN" "http://www.w3.org/Graphics/SVG/1.1/DTD/svg11.dtd">
<svg version="1.1" id="Layer_1" xmlns="http://www.w3.org/2000/svg" xmlns:xlink="http://www.w3.org/1999/xlink" x="0px" y="0px"
	 width="200px" height="200px" viewBox="-14.871 -1.925 200 200" enable-background="new -14.871 -1.925 200 200"
	 xml:space="preserve">
<g>
	<path fill="#FFFFFF" d="M28.66,46.266c3.551-5.723,10.536-13.134,19.483-16.773c1.052-0.429,2.251,0.078,2.679,1.129
		c0.428,1.052-0.078,2.251-1.13,2.679c-10.374,4.219-16.433,13.346-17.541,15.134c-0.052,0.085-0.123,0.148-0.184,0.224
		c4.658,2.045,8.275,8.328,13.373,8.681c7.163,0.496,13.424-6.723,20.594-6.325c4.781,0.267,7.96,6.087,12.295,7.796
		c-0.092-0.299-0.126-0.623-0.072-0.952c1.114-6.609,0.303-13.474-2.631-22.253c-0.362-1.075,0.221-2.238,1.296-2.598
		c1.081-0.361,2.239,0.221,2.6,1.296c3.118,9.325,4.002,17.027,2.786,24.238c-0.033,0.199-0.114,0.374-0.197,0.546
		c4.373-1.125,7.495-7,12.173-7.457c8.148-0.798,16.088,4.665,24.243,3.94c5.298-0.468,9.223-6.455,14.305-7.353
		c-0.138-0.131-0.258-0.279-0.358-0.452c-0.94-1.612-1.934-3.62-2.985-5.744c-2.869-5.793-6.721-13.547-11.128-16.036
		c-6.411,0.042-12.627,0.093-18.717,0.143c0.437,2.259,1.2,5.954,4.078,11.491c0.524,1.008,0.135,2.246-0.872,2.772
		c-0.304,0.157-0.627,0.233-0.948,0.233c-0.744,0-1.458-0.404-1.825-1.108c-3.227-6.199-4.025-10.314-4.505-12.775
		c-0.038-0.201-0.076-0.394-0.114-0.577c-1.667,0.013-3.33,0.027-4.984,0.043c-16.311,0.145-33.177,0.295-52.15,0.318h-0.022
		c-1.176,0-2.307-0.172-3.398-0.444C26.892,37.86,2.706,43.688,0.077,56.698c-1.516,7.519,19.747-7.862,28.401-8.657
		C28.275,47.474,28.314,46.821,28.66,46.266z"/>
	<path fill="#FFFFFF" d="M167.771,44.159c-15-1.293-19.965-9.522-23.162-18.411c-0.579,0.079-1.163,0.135-1.761,0.138
		c-6.36,0.009-12.45,0.033-18.371,0.063c3.45,3.89,6.216,9.447,8.593,14.249c1.022,2.061,1.986,4.007,2.856,5.504
		c0.487,0.837,0.312,1.872-0.36,2.513c6.105,0.854,10.632,6.009,16.954,6.758C163.969,56.325,175.438,44.819,167.771,44.159z"/>
	<path fill="#FFFFFF" d="M157.063,59.728c-1.134,0.197-2.281,0.31-3.43,0.31h-0.004c-0.721,0-1.442-0.042-2.142-0.125
		c-3.629-0.429-6.605-2.082-9.483-3.681c-2.882-1.6-5.602-3.11-8.694-3.186h-0.004c-2.386,0-4.58,1.612-6.9,3.319
		c-2.578,1.894-5.242,3.854-8.591,4.148c-4.416,0.384-8.699-0.854-12.809-2.055c-3.971-1.157-7.683-2.248-11.413-1.893
		c-1.853,0.182-3.605,1.725-5.464,3.356c-2.301,2.021-4.91,4.312-8.342,4.312c-0.016,0-0.153,0-0.168,0
		c-3.575-0.077-6.28-2.508-8.661-4.653c-2.006-1.808-3.9-3.509-5.928-3.622c-3.05-0.168-6.018,1.346-9.203,2.952
		c-3.56,1.796-7.29,3.671-11.421,3.371c-3.684-0.257-6.461-2.766-9.146-5.191c-2.292-2.071-4.458-4.027-6.745-4.13l-0.162-0.004
		c-1.635,0-4.239,0.917-7.088,2.152c-0.061,0.418-0.179,0.829-0.415,1.202c-4.573,7.206-6.426,16.799-5.506,28.508
		c0.479,6.096,1.772,13.429,3.514,21.285h29.443c6.553-14.49,21.136-24.578,38.072-24.578c16.938,0,31.523,10.087,38.074,24.578
		h35.507c2.432-9.865,4.134-18.396,4.204-23.262c0.126-8.705-2.188-16.36-6.874-22.744
		C157.192,59.988,157.131,59.854,157.063,59.728z"/>
	<path fill="#FFFFFF" d="M86.828,165.053c-16.937,0-31.521-10.084-38.072-24.577H28.364c1.486,5.107,2.958,10.053,4.324,14.631
		c1.309,4.395,2.519,8.449,3.55,12.019c4.615,15.979,18.477,26.323,38.033,28.376c4.151,0.438,8.541,0.648,13.416,0.648
		c5.969,0,11.863-0.318,17.338-0.659c18.662-1.166,33.186-12.037,37.903-28.365c0.785-2.722,1.954-6.586,3.345-11.2
		c1.351-4.472,2.952-9.766,4.632-15.448H124.9C118.35,154.969,103.767,165.053,86.828,165.053z"/>
	<path fill="#FFFFFF" d="M38.204,22.42h0.016c18.957-0.026,35.814-0.175,52.119-0.321c16.368-0.146,33.293-0.297,52.506-0.324
		c3.761-0.004,6.966-2.312,8.166-5.873c0.773-2.301,1.354-5.021,1.722-8.087c0.245-2.068-0.33-3.908-1.713-5.467
		C149.634,0.791,147.876,0,145.792,0H37.107c-2.545,0-4.652,0.881-6.437,2.691c-1.788,1.814-2.64,3.932-2.604,6.478
		c0.042,2.93,0.504,5.327,1.464,7.547C31.072,20.288,34.314,22.42,38.204,22.42z"/>
	<path fill="#FFFFFF" d="M111.649,106.881h-2.935v-1.466c0-0.812-0.656-1.469-1.467-1.469h-5.403c-2.098,0-4.171-0.336-6.162-1.001
		c-0.93-0.31-1.898-0.467-2.877-0.467c-2.054,0-4.001,0.685-5.593,1.932c-2.899-5.614-8.748-9.267-15.174-9.267
		c-0.81,0-1.467,0.657-1.467,1.468v7.335H66.17c-0.81,0-1.467,0.657-1.467,1.469v1.466h-2.934c-0.81,0-1.467,0.657-1.467,1.467
		v36.677c0,0.812,0.657,1.468,1.467,1.468h20.539c0,0.811,0.657,1.467,1.467,1.467h5.868c0.811,0,1.467-0.656,1.467-1.467h20.539
		c0.81,0,1.466-0.656,1.466-1.468v-36.677C113.115,107.538,112.458,106.881,111.649,106.881z M88.176,107.49l0.268-0.27
		c1.165-1.165,2.714-1.806,4.361-1.806c0.664,0,1.321,0.104,1.951,0.315c2.29,0.763,4.675,1.149,7.089,1.149h3.936v30.809h-3.936
		c-2.098,0-4.171-0.337-6.162-1.001c-0.93-0.31-1.898-0.467-2.877-0.467c-1.655,0-3.242,0.439-4.629,1.262L88.176,107.49
		L88.176,107.49z M73.505,98.156c5.246,0.551,9.826,4.024,11.736,9.009v27.991c-2.887-3.513-7.108-5.805-11.736-6.205V98.156z
		 M67.637,106.881h2.934v23.473c0,0.812,0.657,1.469,1.467,1.469c4.029,0,7.788,1.729,10.418,4.587
		c-1.538-0.315-3.197-0.228-4.723,0.28c-1.99,0.663-4.064,1-6.162,1h-3.935L67.637,106.881L67.637,106.881z M110.181,143.558H89.643
		c-0.811,0-1.467,0.657-1.467,1.467h-2.934c0-0.81-0.657-1.467-1.467-1.467H63.236v-33.742h1.467v29.342
		c0,0.81,0.657,1.467,1.467,1.467h5.402c2.415,0,4.799-0.388,7.09-1.149c0.63-0.211,1.287-0.316,1.95-0.316
		c1.647,0,3.196,0.642,4.361,1.807l0.698,0.697c0.562,0.561,1.511,0.562,2.074,0l0.698-0.697c1.166-1.165,2.715-1.807,4.362-1.807
		c0.664,0,1.321,0.105,1.951,0.315c2.29,0.764,4.675,1.15,7.089,1.15h5.403c0.811,0,1.467-0.657,1.467-1.467v-29.342h1.467
		L110.181,143.558L110.181,143.558z"/>
</g>
</svg>
