<?xml version="1.0" encoding="utf-8"?>
<!-- Generator: Adobe Illustrator 16.0.0, SVG Export Plug-In . SVG Version: 6.00 Build 0)  -->
<!DOCTYPE svg PUBLIC "-//W3C//DTD SVG 1.1//EN" "http://www.w3.org/Graphics/SVG/1.1/DTD/svg11.dtd">
<svg version="1.1" id="Layer_1" xmlns="http://www.w3.org/2000/svg" xmlns:xlink="http://www.w3.org/1999/xlink" x="0px" y="0px"
	 width="1200.699px" height="226.723px" viewBox="0 0 1200.699 226.723" enable-background="new 0 0 1200.699 226.723"
	 xml:space="preserve">
<g>
	<path d="M28.66,46.266c3.551-5.723,10.536-13.134,19.483-16.774c1.052-0.428,2.251,0.079,2.679,1.129
		c0.428,1.052-0.078,2.251-1.13,2.679c-10.374,4.219-16.433,13.346-17.541,15.134c-0.052,0.085-0.123,0.148-0.184,0.223
		c4.658,2.045,8.275,8.329,13.373,8.681c7.163,0.496,13.424-6.723,20.594-6.325c4.781,0.267,7.96,6.087,12.295,7.796
		c-0.092-0.299-0.126-0.623-0.072-0.952c1.114-6.61,0.303-13.474-2.631-22.253c-0.362-1.075,0.221-2.239,1.296-2.598
		c1.081-0.361,2.239,0.221,2.6,1.296c3.118,9.325,4.002,17.027,2.786,24.238c-0.033,0.199-0.114,0.374-0.197,0.546
		c4.373-1.125,7.495-7,12.173-7.457c8.148-0.798,16.088,4.665,24.243,3.941c5.298-0.468,9.223-6.456,14.305-7.353
		c-0.138-0.131-0.258-0.279-0.358-0.452c-0.94-1.612-1.934-3.62-2.985-5.744c-2.869-5.793-6.721-13.547-11.128-16.036
		c-6.411,0.042-12.627,0.092-18.717,0.142c0.437,2.259,1.2,5.954,4.078,11.491c0.524,1.008,0.135,2.246-0.872,2.773
		c-0.304,0.157-0.627,0.233-0.948,0.233c-0.744,0-1.458-0.404-1.825-1.108c-3.227-6.199-4.025-10.315-4.505-12.776
		c-0.038-0.201-0.076-0.393-0.114-0.577c-1.667,0.013-3.33,0.028-4.984,0.043c-16.311,0.145-33.177,0.295-52.15,0.319h-0.022
		c-1.176,0-2.307-0.172-3.398-0.445C26.892,37.86,2.706,43.688,0.077,56.697c-1.516,7.519,19.747-7.862,28.401-8.657
		C28.275,47.474,28.314,46.821,28.66,46.266z"/>
	<path d="M167.771,44.159c-15-1.293-19.965-9.522-23.162-18.411c-0.579,0.079-1.163,0.135-1.761,0.138
		c-6.36,0.009-12.45,0.033-18.371,0.063c3.45,3.89,6.216,9.448,8.593,14.249c1.022,2.061,1.986,4.007,2.856,5.504
		c0.487,0.837,0.312,1.872-0.36,2.513c6.105,0.854,10.632,6.009,16.954,6.758C163.969,56.325,175.438,44.819,167.771,44.159z"/>
	<path d="M157.063,59.728c-1.134,0.197-2.281,0.309-3.43,0.309h-0.004c-0.721,0-1.442-0.042-2.142-0.125
		c-3.629-0.428-6.605-2.082-9.483-3.68c-2.882-1.6-5.602-3.111-8.694-3.186h-0.004c-2.386,0-4.58,1.612-6.9,3.319
		c-2.578,1.894-5.242,3.854-8.591,4.149c-4.416,0.384-8.699-0.854-12.809-2.055c-3.971-1.157-7.683-2.248-11.413-1.892
		c-1.853,0.181-3.605,1.724-5.464,3.356c-2.301,2.021-4.91,4.312-8.342,4.312c-0.016,0-0.153,0-0.168,0
		c-3.575-0.078-6.28-2.508-8.661-4.654c-2.006-1.807-3.9-3.509-5.928-3.622c-3.05-0.168-6.018,1.346-9.203,2.952
		c-3.56,1.796-7.29,3.671-11.421,3.371c-3.684-0.256-6.461-2.765-9.146-5.191c-2.292-2.071-4.458-4.027-6.745-4.13l-0.162-0.004
		c-1.635,0-4.239,0.917-7.088,2.153c-0.061,0.418-0.179,0.829-0.415,1.202c-4.573,7.206-6.426,16.799-5.506,28.508
		c0.479,6.095,1.772,13.428,3.514,21.285h29.443c6.553-14.491,21.136-24.578,38.072-24.578c16.938,0,31.523,10.087,38.074,24.578
		h35.507c2.432-9.866,4.134-18.396,4.204-23.262c0.126-8.705-2.188-16.36-6.874-22.744
		C157.192,59.988,157.131,59.854,157.063,59.728z"/>
	<path d="M86.828,165.053c-16.937,0-31.521-10.084-38.072-24.577H28.364c1.486,5.107,2.958,10.053,4.324,14.631
		c1.309,4.394,2.519,8.449,3.55,12.018c4.615,15.979,18.477,26.323,38.033,28.376c4.151,0.438,8.541,0.649,13.416,0.649
		c5.969,0,11.863-0.319,17.338-0.66c18.662-1.166,33.186-12.037,37.903-28.365c0.785-2.721,1.954-6.586,3.345-11.2
		c1.351-4.472,2.952-9.766,4.632-15.448H124.9C118.35,154.969,103.767,165.053,86.828,165.053z"/>
	<path d="M38.204,22.42h0.016c18.957-0.026,35.814-0.175,52.119-0.321c16.368-0.146,33.293-0.297,52.506-0.324
		c3.761-0.004,6.966-2.312,8.166-5.873c0.773-2.301,1.354-5.021,1.722-8.087c0.245-2.069-0.33-3.909-1.713-5.467
		C149.634,0.791,147.876,0,145.792,0H37.107c-2.545,0-4.652,0.881-6.437,2.692c-1.788,1.814-2.64,3.931-2.604,6.477
		c0.042,2.93,0.504,5.327,1.464,7.547C31.072,20.288,34.314,22.42,38.204,22.42z"/>
	<path d="M111.649,106.881h-2.935v-1.466c0-0.811-0.656-1.468-1.467-1.468h-5.403c-2.098,0-4.171-0.336-6.162-1.001
		c-0.93-0.31-1.898-0.467-2.877-0.467c-2.054,0-4.001,0.684-5.593,1.931c-2.899-5.614-8.748-9.266-15.174-9.266
		c-0.81,0-1.467,0.657-1.467,1.468v7.335H66.17c-0.81,0-1.467,0.657-1.467,1.468v1.466h-2.934c-0.81,0-1.467,0.657-1.467,1.467
		v36.677c0,0.811,0.657,1.467,1.467,1.467h20.539c0,0.811,0.657,1.467,1.467,1.467h5.868c0.811,0,1.467-0.656,1.467-1.467h20.539
		c0.81,0,1.466-0.656,1.466-1.467v-36.677C113.115,107.538,112.458,106.881,111.649,106.881z M88.176,107.489l0.268-0.269
		c1.165-1.165,2.714-1.806,4.361-1.806c0.664,0,1.321,0.105,1.951,0.316c2.29,0.762,4.675,1.149,7.089,1.149h3.936v30.809h-3.936
		c-2.098,0-4.171-0.337-6.162-1.001c-0.93-0.31-1.898-0.467-2.877-0.467c-1.655,0-3.242,0.439-4.629,1.262V107.489z M73.505,98.156
		c5.246,0.551,9.826,4.025,11.736,9.009v27.991c-2.887-3.512-7.108-5.804-11.736-6.205V98.156z M67.637,106.881h2.934v23.473
		c0,0.811,0.657,1.468,1.467,1.468c4.029,0,7.788,1.729,10.418,4.587c-1.538-0.315-3.197-0.227-4.723,0.281
		c-1.99,0.663-4.064,1-6.162,1h-3.935V106.881z M110.181,143.558H89.643c-0.811,0-1.467,0.657-1.467,1.467h-2.934
		c0-0.81-0.657-1.467-1.467-1.467H63.236v-33.742h1.467v29.341c0,0.81,0.657,1.467,1.467,1.467h5.402
		c2.415,0,4.799-0.387,7.09-1.149c0.63-0.211,1.287-0.317,1.95-0.317c1.647,0,3.196,0.642,4.361,1.807l0.698,0.697
		c0.562,0.561,1.511,0.563,2.074,0l0.698-0.697c1.166-1.165,2.715-1.807,4.362-1.807c0.664,0,1.321,0.106,1.951,0.316
		c2.29,0.764,4.675,1.15,7.089,1.15h5.403c0.811,0,1.467-0.657,1.467-1.467v-29.341h1.467V143.558z"/>
</g>
<g>
	<path d="M265.299,32.624c-6.43,0-11.886,2.243-16.371,6.728c-4.485,4.485-6.728,9.943-6.728,16.372
		c0,7.625,3.476,13.419,10.428,17.38c3.064,1.721,12.072,4.748,27.023,9.083c12.783,3.812,22.127,8.41,28.033,13.792
		c8.82,8,13.231,19.25,13.231,33.752c0,14.055-5.009,26.053-15.026,35.994c-9.943,9.942-21.904,14.913-35.882,14.913h-42.722
		c-3.664,0-6.84-1.346-9.531-4.037c-2.691-2.69-4.037-5.867-4.037-9.531v-0.672c0-3.662,1.346-6.841,4.037-9.531
		c2.691-2.691,5.868-4.037,9.531-4.037h43.843c6.353,0,11.811-2.242,16.372-6.728c4.485-4.485,6.728-9.941,6.728-16.371
		c0-7.475-3.476-13.306-10.428-17.493c-3.29-1.942-12.334-5.231-27.136-9.867c-12.783-4.186-22.09-8.932-27.92-14.241
		c-8.822-7.922-13.232-18.726-13.232-32.405c0-14.053,4.971-26.052,14.914-35.995c9.941-9.941,21.939-14.913,35.994-14.913h30.164
		c3.737,0,6.952,1.345,9.643,4.037c2.616,2.618,3.925,5.794,3.925,9.531v0.673c0,3.664-1.309,6.84-3.925,9.531
		c-2.691,2.691-5.906,4.037-9.643,4.037H265.299z"/>
	<path d="M353.882,5.488c3.662,0,6.84,1.309,9.531,3.924c2.691,2.691,4.037,5.906,4.037,9.644v32.406h16.819
		c3.662,0,6.84,1.346,9.531,4.037c2.691,2.691,4.037,5.906,4.037,9.644v0.224c0,3.812-1.346,6.991-4.037,9.531
		c-2.691,2.691-5.869,4.037-9.531,4.037h-16.819v66.494c0,2.169,0.746,4,2.242,5.494c1.495,1.496,3.364,2.242,5.606,2.242h8.971
		c3.662,0,6.84,1.346,9.531,4.037s4.037,5.906,4.037,9.644v0.224c0,3.812-1.346,6.991-4.037,9.531
		c-2.691,2.691-5.869,4.037-9.531,4.037h-8.971c-9.719,0-18.053-3.438-25.005-10.316c-6.879-6.952-10.316-15.25-10.316-24.893
		V19.056c0-3.737,1.346-6.952,4.037-9.644c2.691-2.616,5.867-3.924,9.531-3.924H353.882z"/>
	<path d="M474.76,51.461c17.791,0,33.004,6.318,45.638,18.95c12.633,12.635,18.95,27.848,18.95,45.638
		c0,17.792-6.317,33.006-18.95,45.638c-12.634,12.634-27.847,18.95-45.638,18.95c-17.792,0-33.005-6.316-45.637-18.95
		c-12.635-12.632-18.95-27.846-18.95-45.638c0-17.79,6.315-33.003,18.95-45.638C441.755,57.779,456.968,51.461,474.76,51.461z
		 M474.76,79.158c-10.315,0-19.101,3.626-26.351,10.876c-7.177,7.252-10.765,16.035-10.765,26.352
		c0,10.242,3.588,18.988,10.765,26.238c7.25,7.252,16.035,10.877,26.351,10.877c10.241,0,18.987-3.625,26.239-10.877
		c7.25-7.25,10.877-15.996,10.877-26.238c0-10.316-3.627-19.1-10.877-26.352C493.748,82.784,485.001,79.158,474.76,79.158z"/>
	<path d="M614.252,51.461c3.737,0,6.952,1.346,9.644,4.037c2.615,2.691,3.924,5.906,3.924,9.644v0.224
		c0,3.739-1.309,6.916-3.924,9.531c-2.691,2.691-5.906,4.037-9.644,4.037h-6.392c-6.131,0-11.325,2.131-15.586,6.392
		c-4.188,4.261-6.318,9.457-6.392,15.586v66.157c0,3.812-1.346,6.991-4.037,9.531c-2.691,2.691-5.869,4.037-9.531,4.037h-0.336
		c-3.664,0-6.84-1.346-9.531-4.037c-2.691-2.54-4.037-5.719-4.037-9.531v-66.157c0.149-13.68,4.971-25.342,14.465-34.985
		c9.644-9.643,21.306-14.465,34.985-14.465H614.252z"/>
	<path d="M667.626,124.011c0,7.4,2.579,13.718,7.737,18.95c5.231,5.233,11.586,7.849,19.062,7.849
		c7.325,0,13.605-2.615,18.839-7.849c5.231-5.232,7.849-11.55,7.849-18.95V65.142c0-3.737,1.346-6.952,4.037-9.644
		c2.69-2.691,5.904-4.037,9.643-4.037h0.225c3.812,0,6.989,1.346,9.531,4.037c2.691,2.691,4.037,5.906,4.037,9.644v107.31
		c0,14.802-5.57,27.584-16.708,38.349c-10.84,10.614-23.323,15.923-37.452,15.923c-11.213,0-21.417-2.767-30.611-8.298
		c-8.971-5.382-15.774-12.597-20.408-21.642c-1.048-2.018-1.569-4.036-1.569-6.055c0-1.721,0.373-3.439,1.121-5.158
		c1.494-3.888,4.11-6.465,7.849-7.737l0.449-0.224c1.644-0.522,3.252-0.785,4.821-0.785c1.644,0,3.252,0.3,4.821,0.897
		c3.064,1.271,5.383,3.4,6.952,6.391c2.392,4.485,5.98,8.11,10.765,10.877c4.858,2.841,10.129,4.262,15.811,4.262
		c7.102,0,13.306-2.618,18.614-7.85c5.382-5.383,8.073-11.698,8.073-18.95v-0.897c-5.906,4.412-14.801,6.616-26.688,6.616
		c-14.952,0-27.734-5.307-38.349-15.923c-10.615-10.54-15.923-23.284-15.923-38.236V65.142c0-3.737,1.346-6.952,4.037-9.644
		c2.691-2.691,5.867-4.037,9.531-4.037h0.336c3.662,0,6.84,1.346,9.531,4.037c2.691,2.691,4.037,5.906,4.037,9.644V124.011z"/>
	<path d="M808.799,19.056c0-3.737,1.308-6.952,3.925-9.644c2.691-2.616,5.904-3.924,9.644-3.924h0.225
		c3.736,0,6.952,1.309,9.643,3.924c2.616,2.691,3.925,5.906,3.925,9.644v120.653c0,11.288-4,20.932-11.998,28.93
		c-8,8-17.643,11.998-28.93,11.998h-20.744c-3.664,0-6.84-1.346-9.531-4.037c-2.691-2.54-4.037-5.719-4.037-9.531v-0.224
		c0-3.737,1.346-6.952,4.037-9.644s5.867-4.037,9.531-4.037h20.744c3.812,0,7.025-1.307,9.644-3.924
		c2.615-2.616,3.924-5.793,3.924-9.531V19.056z"/>
	<path d="M971.054,70.411c12.632,12.635,18.95,27.848,18.95,45.638v51.02c0,3.812-1.346,6.991-4.037,9.531
		c-2.691,2.691-5.869,4.037-9.531,4.037H976.1c-3.664,0-6.84-1.346-9.531-4.037c-2.691-2.54-4.037-5.719-4.037-9.531
		c-8.521,9.046-20.895,13.568-37.115,13.568c-17.792,0-33.005-6.316-45.638-18.95c-12.634-12.632-18.95-27.846-18.95-45.638
		c0-17.79,6.316-33.003,18.95-45.638c12.633-12.632,27.846-18.95,45.638-18.95C943.207,51.461,958.419,57.779,971.054,70.411z
		 M899.066,89.811c-7.177,7.252-10.765,15.998-10.765,26.238c0,10.316,3.588,19.102,10.765,26.352
		c7.25,7.176,16.034,10.764,26.351,10.764s19.062-3.588,26.238-10.764c7.25-7.25,10.877-16.035,10.877-26.352
		c0-10.24-3.627-18.986-10.877-26.238c-7.251-7.25-15.997-10.877-26.238-10.877C915.1,78.934,906.316,82.561,899.066,89.811z"/>
	<path d="M1039.903,167.068c0,3.812-1.346,6.991-4.037,9.531c-2.691,2.691-5.869,4.037-9.531,4.037h-0.336
		c-3.664,0-6.84-1.346-9.531-4.037c-2.691-2.54-4.037-5.719-4.037-9.531v-61.672c0-14.801,5.271-27.509,15.811-38.125
		c10.541-10.541,23.248-15.811,38.125-15.811c17.79,0,31.209,5.906,40.255,17.717c8.971-11.811,22.351-17.717,40.144-17.717
		c14.875,0,27.584,5.27,38.124,15.811c10.541,10.616,15.811,23.324,15.811,38.125v61.672c0,3.739-1.309,6.916-3.925,9.531
		c-2.69,2.691-5.906,4.037-9.643,4.037h-0.225c-3.812,0-6.99-1.346-9.531-4.037c-2.691-2.54-4.036-5.719-4.036-9.531v-61.672
		c0-7.325-2.579-13.567-7.737-18.726s-11.438-7.737-18.838-7.737c-7.327,0-13.568,2.579-18.727,7.737s-7.737,11.4-7.737,18.726
		v61.672c0,3.812-1.345,6.991-4.036,9.531c-2.542,2.691-5.719,4.037-9.531,4.037h-0.225c-3.738,0-6.952-1.346-9.643-4.037
		c-2.691-2.54-4.037-5.719-4.037-9.531v-61.672c0-7.325-2.579-13.567-7.737-18.726s-11.4-7.737-18.726-7.737
		c-7.327,0-13.568,2.579-18.726,7.737c-5.158,5.158-7.737,11.4-7.737,18.726V167.068z"/>
</g>
</svg>
